<mxfile host="65bd71144e">
    <diagram id="bkWbE35VZBxQgygpjyHA" name="Page-1">
        <mxGraphModel dx="479" dy="441" grid="1" gridSize="10" guides="1" tooltips="1" connect="1" arrows="1" fold="1" page="1" pageScale="1" pageWidth="850" pageHeight="1100" math="0" shadow="0">
            <root>
                <mxCell id="0"/>
                <mxCell id="1" parent="0"/>
                <mxCell id="4" value="Sfaff" style="swimlane;" vertex="1" parent="1">
                    <mxGeometry x="60" y="50" width="630" height="880" as="geometry"/>
                </mxCell>
                <mxCell id="7" value="CLI&lt;br&gt;Create Sfatt Accounts" style="rounded=1;whiteSpace=wrap;html=1;" vertex="1" parent="1">
                    <mxGeometry x="80" y="90" width="170" height="50" as="geometry"/>
                </mxCell>
                <mxCell id="8" value="API&lt;br&gt;Create Sfatt Accounts" style="rounded=1;whiteSpace=wrap;html=1;" vertex="1" parent="1">
                    <mxGeometry x="80" y="158" width="170" height="50" as="geometry"/>
                </mxCell>
            </root>
        </mxGraphModel>
    </diagram>
</mxfile>